<svg id="flat" height="512" viewBox="0 0 512 512" width="512" xmlns="http://www.w3.org/2000/svg"><path d="m416 384h72v40h-72z" fill="#d6bfae"/><path d="m376 72h16v72h-16z" fill="#db6512"/><path d="m312 72h16v72h-16z" fill="#db6512"/><path d="m344 32h16v64h-16z" fill="#db6512"/><path d="m392 128-40-56-40 56v16h80z" fill="#f07f2f"/><path d="m312 144h24l16-24 16 24h24v240h-80z" fill="#e9d5c6"/><path d="m360 256h-16v40h-32v16h80v-16h-32z" fill="#cfb6a4"/><path d="m344 336h16v48h-16z" fill="#cfb6a4"/><path d="m360 216v-40h-16v40h-32v16h80v-16z" fill="#cfb6a4"/><path d="m200 192h112v32h-112z" fill="#e3cdbc"/><path d="m248 168h16v56h-16z" fill="#cfb6a4"/><path d="m312 384h112l24 40v56h-136z" fill="#e3cdbc"/><g fill="#d6bfae"><path d="m400 432h24v16h-24z"/><path d="m352 408h24v16h-24z"/><path d="m312 440h24v16h-24z"/></g><path d="m488 336v48h-96v-128l24 20 16 13.33 16 13.34 16 13.33z" fill="#c7ab97"/><path d="m464 316v68h-16v-81.33z" fill="#b3937d"/><path d="m432 289.33v94.67h-16v-108z" fill="#b3937d"/><path d="m24 384h72v40h-72z" fill="#d6bfae"/><path d="m120 72h16v72h-16z" fill="#db6512"/><path d="m184 72h16v72h-16z" fill="#db6512"/><path d="m152 32h16v64h-16z" fill="#db6512"/><path d="m120 128 40-56 40 56v16h-80z" fill="#f07f2f"/><path d="m200 144h-24l-16-24-16 24h-24v240h80z" fill="#e9d5c6"/><path d="m152 256h16v40h32v16h-80v-16h32z" fill="#cfb6a4"/><path d="m152 336h16v48h-16z" fill="#cfb6a4"/><path d="m152 216v-40h16v40h32v16h-80v-16z" fill="#cfb6a4"/><path d="m200 384h-112l-24 40v56h136z" fill="#e3cdbc"/><path d="m88 432h24v16h-24z" fill="#d6bfae"/><path d="m136 408h24v16h-24z" fill="#d6bfae"/><path d="m176 440h24v16h-24z" fill="#d6bfae"/><path d="m24 336v48h96v-128l-24 20-16 13.33-16 13.34-16 13.33z" fill="#c7ab97"/><path d="m48 316v68h16v-81.33z" fill="#b3937d"/><path d="m80 289.33v94.67h16v-108z" fill="#b3937d"/><path d="m312 384v56l-12.8-9.6001a71.45548 71.45548 0 0 0 -11.2-6.8999 70.58046 70.58046 0 0 0 -9.23-3.81006q-3.33-1.10961-6.77-1.89014a71.9766 71.9766 0 0 0 -59.19995 12.6001l-12.80005 9.6001v-56z" fill="#d6bfae"/><path d="m240 384v33.7998a71.62494 71.62494 0 0 0 -16 5.7002v-39.5z" fill="#c7ab97"/><path d="m288 384v39.5a70.58046 70.58046 0 0 0 -9.23-3.81006q-3.33-1.10961-6.77-1.89014v-33.7998z" fill="#c7ab97"/></svg>