<svg height="512pt" viewBox="0 0 512 512" width="512pt" xmlns="http://www.w3.org/2000/svg"><path d="m40 452v-280h341v40h40v-152c0-33.085938-26.914062-60-60-60h-301c-33.085938 0-60 26.914062-60 60v392c0 33.085938 26.914062 60 60 60h219v-40h-219c-11.027344 0-20-8.972656-20-20zm20-412h301c11.027344 0 20 8.972656 20 20v72h-341v-72c0-11.027344 8.972656-20 20-20zm66 226h-40v-40h40zm76 0h-40v-40h40zm75 0h-40v-40h40zm-151 76h-40v-40h40zm76 0h-40v-40h40zm75 0h-40v-40h40zm-191 36h40v40h-40zm76 0h40v40h-40zm75 0h40v40h-40zm250.058594-4.644531c5.621094-9.132813 8.867187-19.871094 8.867187-31.355469 0-27.152344-18.136719-50.136719-42.925781-57.511719v-32.488281h-40v30h-20.925781v-30h-40v30h-30.074219v40h30.074219v120h-30.074219v40h30.074219v30h40v-30h19.925781v30h40v-30c33.085938 0 60-26.914062 60-60 0-20.003906-9.847656-37.738281-24.941406-48.644531zm-51.132813-51.355469c11.027344 0 20 8.972656 20 20s-8.972656 20-20 20h-43.851562v-40zm16.074219 120h-59.925781v-40h59.925781c11.027344 0 20 8.972656 20 20s-8.972656 20-20 20zm0 0"/></svg>