<svg height="512" viewBox="0 0 128 128" width="512" xmlns="http://www.w3.org/2000/svg" data-name="Layer 2"><path d="M127.97 78.99a92.068 92.068 0 00-18.05-39.51l1.24-1.24a1.762 1.762 0 000-2.48l-3.65-3.64 5.23-5.23a1.75 1.75 0 000-2.47l-9.16-9.16a1.75 1.75 0 00-2.47 0l-5.23 5.23-3.64-3.65a1.762 1.762 0 00-2.48 0l-1.24 1.24A91.968 91.968 0 0049.01.03a1.756 1.756 0 00-1.57 2.96l28.09 28.08-.78.79a1.743 1.743 0 00-.51 1.4l.77 8.1-74.5 74.5a1.75 1.75 0 000 2.47l9.16 9.16a1.75 1.75 0 002.47 0l74.5-74.5 8.1.77a1.743 1.743 0 001.4-.51l.79-.78 28.08 28.09a1.791 1.791 0 001.24.51 1.725 1.725 0 00.82-.21 1.745 1.745 0 00.9-1.87zm-25.62-60.02l6.68 6.68-3.99 3.99-6.68-6.68zm-91.44 104.8l-6.68-6.68 72.6-72.6 6.68 6.68zm87.25-75.01a1.732 1.732 0 00-2.47 0l-1.44 1.44-7.47-.71-8.27-8.27-.7-7.47 1.43-1.44a1.732 1.732 0 000-2.47L54.2 4.8a88.463 88.463 0 0133.34 16.98 1.761 1.761 0 002.35-.11L91 20.55 107.45 37l-1.12 1.11a1.761 1.761 0 00-.11 2.35 88.885 88.885 0 0116.99 33.34z"/><path d="M86.556 29.813a1.749 1.749 0 000 2.475l9.157 9.157a1.75 1.75 0 002.475-2.475l-9.158-9.157a1.749 1.749 0 00-2.474 0z"/></svg>